<svg xmlns="http://www.w3.org/2000/svg" viewBox="0 0 1400 900" role="img" aria-labelledby="title desc">
  <title id="title">Appraisal report desk illustration</title>
  <desc id="desc">A refined desk scene with property appraisal documents, charts, a tablet, and a key tag.</desc>
  <defs>
    <linearGradient id="bg" x1="0" x2="1" y1="0" y2="1">
      <stop offset="0" stop-color="#f7f2e9"/>
      <stop offset="1" stop-color="#d7e5e0"/>
    </linearGradient>
    <linearGradient id="tablet" x1="0" x2="1" y1="0" y2="1">
      <stop offset="0" stop-color="#203135"/>
      <stop offset="1" stop-color="#0f6b64"/>
    </linearGradient>
    <filter id="shadow" x="-20%" y="-20%" width="140%" height="140%">
      <feDropShadow dx="0" dy="22" stdDeviation="24" flood-color="#132527" flood-opacity=".18"/>
    </filter>
  </defs>
  <rect width="1400" height="900" fill="url(#bg)"/>
  <path d="M0 700c180-66 346-69 498-10 176 69 358 72 546 10 129-43 248-51 356-24v224H0Z" fill="#eef2ef"/>
  <g filter="url(#shadow)">
    <rect x="170" y="178" width="510" height="620" rx="18" fill="#fffdf8"/>
    <rect x="214" y="232" width="190" height="16" rx="8" fill="#c8953e"/>
    <rect x="214" y="278" width="370" height="12" rx="6" fill="#dce4e2"/>
    <rect x="214" y="312" width="312" height="12" rx="6" fill="#dce4e2"/>
    <rect x="214" y="346" width="346" height="12" rx="6" fill="#dce4e2"/>
    <rect x="214" y="418" width="108" height="180" rx="8" fill="#e9efed"/>
    <rect x="350" y="418" width="108" height="180" rx="8" fill="#e9efed"/>
    <rect x="486" y="418" width="108" height="180" rx="8" fill="#e9efed"/>
    <rect x="232" y="522" width="72" height="58" rx="5" fill="#0f6b64"/>
    <rect x="368" y="476" width="72" height="104" rx="5" fill="#c8953e"/>
    <rect x="504" y="452" width="72" height="128" rx="5" fill="#182327"/>
    <rect x="214" y="650" width="290" height="12" rx="6" fill="#dce4e2"/>
    <rect x="214" y="686" width="210" height="12" rx="6" fill="#dce4e2"/>
  </g>
  <g filter="url(#shadow)">
    <rect x="660" y="260" width="560" height="350" rx="28" fill="url(#tablet)"/>
    <rect x="700" y="310" width="200" height="22" rx="11" fill="#8bd8cf" opacity=".9"/>
    <polyline points="724,500 814,438 906,470 1000,376 1132,414" fill="none" stroke="#f7f2e9" stroke-width="18" stroke-linecap="round" stroke-linejoin="round"/>
    <circle cx="814" cy="438" r="14" fill="#c8953e"/>
    <circle cx="1000" cy="376" r="14" fill="#c8953e"/>
    <rect x="706" y="542" width="430" height="18" rx="9" fill="#ffffff" opacity=".28"/>
  </g>
  <g filter="url(#shadow)">
    <rect x="760" y="568" width="360" height="220" rx="16" fill="#fffdf8"/>
    <rect x="790" y="596" width="300" height="154" rx="10" fill="#d8e4e0"/>
    <path d="M790 716 888 636l64 56 50-36 88 60v34H790Z" fill="#0f6b64"/>
    <circle cx="1014" cy="628" r="24" fill="#c8953e"/>
  </g>
  <g filter="url(#shadow)">
    <path d="M1098 676c0-31 25-56 56-56s56 25 56 56-25 56-56 56-56-25-56-56Z" fill="#fffdf8"/>
    <circle cx="1154" cy="676" r="22" fill="none" stroke="#c8953e" stroke-width="14"/>
    <path d="M1184 676h104v28h-30v28h-28v-28h-46Z" fill="#c8953e"/>
  </g>
  <g opacity=".26">
    <circle cx="102" cy="128" r="76" fill="#0f6b64"/>
    <circle cx="1290" cy="154" r="48" fill="#c8953e"/>
    <circle cx="1240" cy="790" r="34" fill="#0f6b64"/>
  </g>
</svg>
